# xmcd
#
# Track frame offsets: 
#        150
#        13506
#        31531
#        53955
#        70282
#        83705
#        97871
#        125200
#        145355
#        169176
#        179172
#        194117
#        214654
#        235087
#        248566
#        260427
#        282118
#        303617
#        319387
#        341906
#
# Disc length: 4728 seconds
#
# Revision: 3
# Processed by: cddbd v1.5.2PL0 Copyright (c) Steve Scherf et al.
# Submitted via: ExactAudioCopyFreeDBPlugin 1.0
#
DISCID=2e127614
DTITLE=Various Artist - The Best Of Outlaw Country
DYEAR=2008
DGENRE=Country
TTITLE0=Waylon Jennings - Are You Sure Hank Done It This Way
TTITLE1=The Charlie Daniels Band - The South's Gonna Do It Again
TTITLE2=The Allman Brothers Band - Ramblin' Man
TTITLE3=Willie Nelson - Whiskey River (Live)
TTITLE4=Hank Williams Jr. - All My Rowdy Friends Are Coming Over Tonig
TTITLE4=ht
TTITLE5=Jessi Colter - Why You Been Gone So Long
TTITLE6=The Marshall Tucker Band - Can't You See
TTITLE7=Shooter Jennings - 4th Of July
TTITLE8=David Allan Coe - You Never Even Called Me By My Name
TTITLE9=Billy Joe Shaver - I Been To Georgia On A  Fast Train
TTITLE10=Gretchen Wilson - Here For The Party
TTITLE11=Steve Earle - Copperhead Road
TTITLE12=Lynrd Skynrd - Gimmie Three Steps
TTITLE13=Waylon and Willie - Good Hearted Woman
TTITLE14=Johnny Paycheck - Take This Job And Shove It
TTITLE15=Tanya Tucker - Texas (When I Die)
TTITLE16=Travis Tritt - Modern Day Bonnie And Clyde
TTITLE17=The Georgia Satellites - Keep Your Hands To Yourself
TTITLE18=Molly Hatchet - Flirtin' With Disaster
TTITLE19=Johnny Cash - Cocaine Blues
EXTD=The Best of Outlaw Country
EXTT0=
EXTT1=
EXTT2=
EXTT3=
EXTT4=
EXTT5=
EXTT6=
EXTT7=
EXTT8=
EXTT9=
EXTT10=
EXTT11=
EXTT12=
EXTT13=
EXTT14=
EXTT15=
EXTT16=
EXTT17=
EXTT18=
EXTT19=
PLAYORDER=
